<mxfile host="app.diagrams.net" agent="Mozilla/5.0 (Windows NT 10.0; Win64; x64) AppleWebKit/537.36 (KHTML, like Gecko) Chrome/131.0.0.0 Safari/537.36" version="24.8.6">
  <diagram name="Page-1" id="v0h-x5uJeZunK1t_41cg">
    <mxGraphModel dx="1050" dy="565" grid="1" gridSize="10" guides="1" tooltips="1" connect="1" arrows="1" fold="1" page="1" pageScale="1" pageWidth="2339" pageHeight="3300" math="0" shadow="0">
      <root>
        <mxCell id="0" />
        <mxCell id="1" parent="0" />
        <mxCell id="qoYR1P2In5owYic7LhhQ-1" value="" style="whiteSpace=wrap;html=1;aspect=fixed;" parent="1" vertex="1">
          <mxGeometry x="260" width="890" height="890" as="geometry" />
        </mxCell>
        <mxCell id="qoYR1P2In5owYic7LhhQ-2" value="Visiteur&amp;nbsp;" style="shape=umlActor;verticalLabelPosition=bottom;verticalAlign=top;html=1;outlineConnect=0;" parent="1" vertex="1">
          <mxGeometry x="200" y="60" width="30" height="60" as="geometry" />
        </mxCell>
        <mxCell id="qoYR1P2In5owYic7LhhQ-4" value="consulte List of compétence&amp;nbsp;" style="ellipse;whiteSpace=wrap;html=1;" parent="1" vertex="1">
          <mxGeometry x="480" y="30" width="120" height="80" as="geometry" />
        </mxCell>
        <mxCell id="qoYR1P2In5owYic7LhhQ-5" value="List of créneau libre sans savoir les nom&amp;nbsp;" style="ellipse;whiteSpace=wrap;html=1;" parent="1" vertex="1">
          <mxGeometry x="500" y="140" width="120" height="80" as="geometry" />
        </mxCell>
        <mxCell id="qoYR1P2In5owYic7LhhQ-7" value="User1" style="shape=umlActor;verticalLabelPosition=bottom;verticalAlign=top;html=1;outlineConnect=0;" parent="1" vertex="1">
          <mxGeometry x="190" y="410" width="30" height="60" as="geometry" />
        </mxCell>
        <mxCell id="qoYR1P2In5owYic7LhhQ-11" value="Log in&amp;nbsp;" style="ellipse;whiteSpace=wrap;html=1;" parent="1" vertex="1">
          <mxGeometry x="710" y="210" width="120" height="80" as="geometry" />
        </mxCell>
        <mxCell id="qoYR1P2In5owYic7LhhQ-12" value="Demande une aide&amp;nbsp;" style="ellipse;whiteSpace=wrap;html=1;" parent="1" vertex="1">
          <mxGeometry x="720" y="370" width="120" height="80" as="geometry" />
        </mxCell>
        <mxCell id="qoYR1P2In5owYic7LhhQ-13" value="" style="endArrow=classic;html=1;rounded=0;" parent="1" target="qoYR1P2In5owYic7LhhQ-12" edge="1">
          <mxGeometry width="50" height="50" relative="1" as="geometry">
            <mxPoint x="220" y="440" as="sourcePoint" />
            <mxPoint x="620" y="350" as="targetPoint" />
          </mxGeometry>
        </mxCell>
        <mxCell id="qoYR1P2In5owYic7LhhQ-14" value="Définir List de compétence qui est prêt à offrir&amp;nbsp;" style="ellipse;whiteSpace=wrap;html=1;direction=south;" parent="1" vertex="1">
          <mxGeometry x="790" y="510" width="120" height="70" as="geometry" />
        </mxCell>
        <mxCell id="qoYR1P2In5owYic7LhhQ-15" value="" style="endArrow=classic;html=1;rounded=0;entryX=0.043;entryY=0.422;entryDx=0;entryDy=0;entryPerimeter=0;" parent="1" target="qoYR1P2In5owYic7LhhQ-14" edge="1">
          <mxGeometry width="50" height="50" relative="1" as="geometry">
            <mxPoint x="220" y="440" as="sourcePoint" />
            <mxPoint x="620" y="350" as="targetPoint" />
          </mxGeometry>
        </mxCell>
        <mxCell id="qoYR1P2In5owYic7LhhQ-17" value="" style="endArrow=block;endFill=0;endSize=12;html=1;rounded=0;" parent="1" edge="1">
          <mxGeometry width="160" relative="1" as="geometry">
            <mxPoint x="200" y="400" as="sourcePoint" />
            <mxPoint x="200" y="150" as="targetPoint" />
          </mxGeometry>
        </mxCell>
        <mxCell id="qoYR1P2In5owYic7LhhQ-18" value="échange de compétence&lt;div&gt;Allô_aide&amp;nbsp;&lt;/div&gt;" style="rounded=1;whiteSpace=wrap;html=1;" parent="1" vertex="1">
          <mxGeometry x="260" width="190" height="30" as="geometry" />
        </mxCell>
        <mxCell id="qoYR1P2In5owYic7LhhQ-19" value="par nom prénom et Mail" style="shape=note2;boundedLbl=1;whiteSpace=wrap;html=1;size=25;verticalAlign=top;align=center;" parent="1" vertex="1">
          <mxGeometry x="720" y="100" width="120" height="60" as="geometry" />
        </mxCell>
        <mxCell id="qoYR1P2In5owYic7LhhQ-20" value="" style="endArrow=none;dashed=1;html=1;rounded=0;entryX=0.137;entryY=0.977;entryDx=0;entryDy=0;entryPerimeter=0;" parent="1" source="qoYR1P2In5owYic7LhhQ-11" target="qoYR1P2In5owYic7LhhQ-19" edge="1">
          <mxGeometry width="50" height="50" relative="1" as="geometry">
            <mxPoint x="480" y="400" as="sourcePoint" />
            <mxPoint x="485" y="390" as="targetPoint" />
            <Array as="points" />
          </mxGeometry>
        </mxCell>
        <mxCell id="qoYR1P2In5owYic7LhhQ-21" value="voir les créneau d&#39;autre besoin d&#39;aide&amp;nbsp;" style="ellipse;whiteSpace=wrap;html=1;" parent="1" vertex="1">
          <mxGeometry x="610" y="540" width="120" height="80" as="geometry" />
        </mxCell>
        <mxCell id="qoYR1P2In5owYic7LhhQ-22" value="" style="endArrow=classic;html=1;rounded=0;" parent="1" target="qoYR1P2In5owYic7LhhQ-21" edge="1">
          <mxGeometry width="50" height="50" relative="1" as="geometry">
            <mxPoint x="220" y="440" as="sourcePoint" />
            <mxPoint x="600" y="350" as="targetPoint" />
          </mxGeometry>
        </mxCell>
        <mxCell id="Zc2OePqAMxO-LDyz2nVQ-3" value="Proposer une disponibilité&amp;nbsp;" style="ellipse;whiteSpace=wrap;html=1;" parent="1" vertex="1">
          <mxGeometry x="380" y="550" width="120" height="80" as="geometry" />
        </mxCell>
        <mxCell id="Zc2OePqAMxO-LDyz2nVQ-4" value="" style="endArrow=classic;html=1;rounded=0;" parent="1" target="Zc2OePqAMxO-LDyz2nVQ-3" edge="1">
          <mxGeometry width="50" height="50" relative="1" as="geometry">
            <mxPoint x="220" y="440" as="sourcePoint" />
            <mxPoint x="560" y="370" as="targetPoint" />
          </mxGeometry>
        </mxCell>
        <mxCell id="Zc2OePqAMxO-LDyz2nVQ-5" value="1-indicer le jour et les activité&amp;nbsp;&lt;div&gt;&lt;br&gt;&lt;/div&gt;" style="shape=note2;boundedLbl=1;whiteSpace=wrap;html=1;size=25;verticalAlign=top;align=center;" parent="1" vertex="1">
          <mxGeometry x="800" y="300" width="180" height="60" as="geometry" />
        </mxCell>
        <mxCell id="Zc2OePqAMxO-LDyz2nVQ-6" value="" style="endArrow=none;dashed=1;html=1;rounded=0;entryX=0.803;entryY=0.972;entryDx=0;entryDy=0;entryPerimeter=0;" parent="1" source="qoYR1P2In5owYic7LhhQ-12" target="Zc2OePqAMxO-LDyz2nVQ-5" edge="1">
          <mxGeometry width="50" height="50" relative="1" as="geometry">
            <mxPoint x="650" y="500" as="sourcePoint" />
            <mxPoint x="516" y="389" as="targetPoint" />
            <Array as="points" />
          </mxGeometry>
        </mxCell>
        <mxCell id="Zc2OePqAMxO-LDyz2nVQ-10" value="&lt;div&gt;&amp;nbsp;1-&lt;span style=&quot;background-color: transparent; white-space-collapse: preserve; text-align: left; font-family: Arial, sans-serif;&quot;&gt;&lt;font style=&quot;font-size: 12px;&quot;&gt;Ne voir que les créneaux où l’utilisateur connecté (U1) possède la compétence nécessaire.&lt;/font&gt;&lt;/span&gt;&lt;/div&gt;&lt;div&gt;&lt;span style=&quot;background-color: transparent; white-space-collapse: preserve; font-family: Arial, sans-serif;&quot;&gt;&lt;font style=&quot;font-size: 12px;&quot;&gt;2-Possibilité pour U1 d’indiquer qu’il est disponible pour ce créneau, rendant alors ce créneau indisponible pour d’autres utilisateurs.&lt;/font&gt;&lt;/span&gt;&lt;/div&gt;" style="shape=note2;boundedLbl=1;whiteSpace=wrap;html=1;size=25;verticalAlign=top;align=center;" parent="1" vertex="1">
          <mxGeometry x="540" y="660" width="240" height="160" as="geometry" />
        </mxCell>
        <mxCell id="Zc2OePqAMxO-LDyz2nVQ-12" value="" style="endArrow=none;dashed=1;html=1;rounded=0;" parent="1" source="qoYR1P2In5owYic7LhhQ-21" target="Zc2OePqAMxO-LDyz2nVQ-10" edge="1">
          <mxGeometry width="50" height="50" relative="1" as="geometry">
            <mxPoint x="822" y="386" as="sourcePoint" />
            <mxPoint x="838" y="369" as="targetPoint" />
            <Array as="points">
              <mxPoint x="620" y="640" />
            </Array>
          </mxGeometry>
        </mxCell>
        <mxCell id="UGzLknruHhXXMy0KWJIu-1" value="" style="endArrow=none;html=1;rounded=0;" edge="1" parent="1" target="qoYR1P2In5owYic7LhhQ-4">
          <mxGeometry width="50" height="50" relative="1" as="geometry">
            <mxPoint x="230" y="90" as="sourcePoint" />
            <mxPoint x="750" y="80" as="targetPoint" />
          </mxGeometry>
        </mxCell>
        <mxCell id="UGzLknruHhXXMy0KWJIu-2" value="" style="endArrow=none;html=1;rounded=0;" edge="1" parent="1" target="qoYR1P2In5owYic7LhhQ-11">
          <mxGeometry width="50" height="50" relative="1" as="geometry">
            <mxPoint x="220" y="440" as="sourcePoint" />
            <mxPoint x="750" y="180" as="targetPoint" />
          </mxGeometry>
        </mxCell>
        <mxCell id="UGzLknruHhXXMy0KWJIu-3" value="" style="endArrow=none;html=1;rounded=0;entryX=0.042;entryY=0.425;entryDx=0;entryDy=0;entryPerimeter=0;" edge="1" parent="1" source="qoYR1P2In5owYic7LhhQ-2" target="qoYR1P2In5owYic7LhhQ-5">
          <mxGeometry width="50" height="50" relative="1" as="geometry">
            <mxPoint x="700" y="230" as="sourcePoint" />
            <mxPoint x="750" y="180" as="targetPoint" />
          </mxGeometry>
        </mxCell>
      </root>
    </mxGraphModel>
  </diagram>
</mxfile>
